<svg width="161" height="90" viewBox="0 0 161 90" fill="none" xmlns="http://www.w3.org/2000/svg">
<g clip-path="url(#clip0_134_660)">
<rect x="0.5" width="160" height="90" rx="16" fill="white"/>
<g clip-path="url(#clip1_134_660)">
<path d="M103.431 58.2206L111.28 49.5614L103.431 40.9009H111.712L115.6 45.1076L119.343 40.9009H127.336L119.524 49.5256L127.443 58.2206H119.127L115.275 53.9794L111.459 58.2206H103.431Z" fill="#FF6600"/>
<path d="M103.431 37.0185H94.5411V40.901H103.431V46.7522H94.5411V52.1229H103.431V58.2208H88.0073V30.9375H103.431V37.0185Z" fill="#FF6600"/>
<path d="M81.5012 30.9375V42.1031H81.4295C79.9891 40.4775 78.1894 39.9126 76.1013 39.9126C71.8238 39.9126 68.6017 42.7677 67.4707 46.5425C66.1808 42.3832 62.8544 39.8346 57.9218 39.8346C53.9161 39.8346 50.7529 41.6001 49.1022 44.4769V40.9014H40.8223V37.0193H49.858V30.9375H33.4414V58.2212H40.8223V46.7522H48.179C47.9597 47.5947 47.8426 48.4967 47.8426 49.4486C47.8426 55.1399 52.2707 59.1332 57.9218 59.1332C62.6739 59.1332 65.8056 56.9427 67.4621 52.9489H61.137C60.2813 54.1487 59.6323 54.505 57.9218 54.505C55.9384 54.505 54.2283 52.8059 54.2283 50.7917H67.1077C67.6663 55.3122 71.2526 59.2108 76.1741 59.2108C78.2971 59.2108 80.2408 58.1854 81.4295 56.4541H81.5012V58.2204H88.0075V30.9375H81.5012ZM54.4337 46.8337C54.8442 45.1008 56.213 43.9682 57.9218 43.9682C59.8029 43.9682 61.1022 45.0659 61.4439 46.8337C61.5879 46.8337 54.4337 46.8337 54.4337 46.8337ZM77.5527 54.0667C75.1543 54.0667 73.664 51.8725 73.664 49.5816C73.664 47.1327 74.9604 44.7778 77.5527 44.7778C80.2408 44.7778 81.3117 47.1327 81.3117 49.5816C81.3113 51.9039 80.1765 54.0667 77.5527 54.0667Z" fill="#652C8F"/>
</g>
</g>
<defs>
<clipPath id="clip0_134_660">
<rect width="160" height="90" fill="white" transform="translate(0.5)"/>
</clipPath>
<clipPath id="clip1_134_660">
<rect width="94.1176" height="28.125" fill="white" transform="translate(33.4414 30.9375)"/>
</clipPath>
</defs>
</svg>
