<svg width="161" height="90" viewBox="0 0 161 90" fill="none" xmlns="http://www.w3.org/2000/svg">
<g clip-path="url(#clip0_134_686)">
<rect x="0.5" width="160" height="90" rx="16" fill="white"/>
<g clip-path="url(#clip1_134_686)">
<path fill-rule="evenodd" clip-rule="evenodd" d="M115.678 43.9133L109.807 54.0705L104.799 54.0904L115.678 34.9724L126.516 54.0904H121.428L115.678 43.9123V43.9133ZM99.8707 49.6687H105.48L102.876 54.0904H95.5644L95.5842 48.7065V35.0899H99.8915L99.8716 49.6687H99.8707ZM84.4862 35.0909C89.8349 35.1108 94.162 39.3542 94.1421 44.5996C94.1223 49.8261 89.7952 54.0705 84.4455 54.0705C79.1167 54.0505 74.7896 49.8072 74.7896 44.5608C74.8094 39.3343 79.1366 35.0909 84.4862 35.0909ZM84.4664 49.6498C87.3306 49.6498 89.6335 47.3897 89.6335 44.5996C89.6544 41.8105 87.3306 39.5305 84.4862 39.5305C81.6408 39.5106 79.3171 41.7906 79.3171 44.5807C79.2972 47.3697 81.621 49.6498 84.4654 49.6498H84.4664ZM66.8167 43.0905C66.7572 42.3036 66.5559 41.2627 66.2554 40.2616C65.637 38.1938 64.562 36.2929 63.1104 34.7004C62.3487 33.8757 61.4879 33.1087 60.2045 32.2052C59.2262 31.7203 58.2643 31.2027 57.3204 30.6533C56.6996 30.2997 55.9577 29.8664 54.9769 29.5526C53.8138 29.2769 52.625 29.1256 51.4303 29.1014C50.2699 29.0615 49.1065 29.1611 47.9848 29.3763C46.8026 29.5725 45.8208 29.8863 44.5186 30.2011C41.573 31.4781 39.2899 33.4035 37.3262 35.9585C30.475 45.5658 36.6657 59.025 48.1048 60.6158C49.9882 60.8718 51.8716 60.7732 53.6538 60.3608L54.9164 60.0271C54.956 60.0072 55.0165 59.9873 55.0562 59.9873L56.4992 59.4374C56.5786 59.3976 56.6391 59.3777 56.7194 59.3388L57.3204 59.0639C58.4736 58.4923 59.5561 57.7869 60.5457 56.9621C59.6449 57.7842 58.6652 58.5146 57.6209 59.1426L57.6804 59.1824C57.8818 59.1227 58.0613 59.0639 58.2616 59.025C58.2616 59.025 58.2616 59.3388 58.222 59.28C57.9016 59.5161 58.4025 59.3 59.0431 58.9653C59.6848 58.6316 60.3057 58.2182 60.866 57.747C61.6882 57.0597 62.4092 56.3127 63.4308 55.0954C64.4721 53.2676 65.7753 51.6759 66.3763 49.5343C66.5767 48.9645 66.7562 48.2971 66.8772 47.6088C66.9962 46.9215 67.0775 46.2143 67.0775 45.4871C67.0577 44.76 66.9774 44.0129 66.8167 43.0905ZM51.9916 59.2412C55.4975 58.6903 58.4421 56.746 60.8462 54.0934C61.5077 53.1302 62.0284 52.2456 62.6691 51.2834C63.4704 49.3181 63.4109 47.57 63.6708 46.3328C63.9921 44.0916 63.2304 42.2847 62.5897 40.3592C61.6079 38.119 60.3057 36.4496 58.0216 35.1527C52.2515 31.5767 44.3986 32.5777 40.6526 37.9228C40.6328 37.9228 40.5316 38.0603 40.3313 38.3352C40.5921 37.2355 41.2536 36.587 41.9142 35.9575C43.8779 34.3468 46.1619 33.0688 48.7664 32.4413C51.7119 32.1265 54.6357 32.4413 57.2599 33.7183C61.1874 35.9575 63.7918 39.4757 64.4523 43.6394V47.4913C63.6311 53.7985 58.222 58.5927 51.9916 59.2412ZM66.3962 44.8974C66.2554 35.6636 57.1003 29.4351 48.1852 30.6931C45.5808 31.3406 42.7354 32.6375 40.7121 34.4454C39.7303 35.0929 39.2701 36.2922 38.2882 37.2544C34.3608 43.0118 35.0431 50.3799 39.9306 54.8604C40.5575 55.4829 41.227 56.0607 41.934 56.5896C37.8479 54.1322 36.0042 50.4178 35.3635 45.9005C35.3635 44.2888 35.6838 42.6971 36.024 41.0864C38.3091 34.032 45.5004 28.9042 53.3345 30.2011C54.6367 30.5158 55.9389 30.8495 57.2619 31.1643C58.9043 31.8118 60.5268 32.775 61.8291 34.053C63.1313 35.329 64.1131 36.9406 65.095 38.5314C65.7555 39.8094 66.0768 41.4201 66.3972 42.6971C66.4567 43.4242 66.4567 44.1713 66.3972 44.8984L66.3962 44.8974Z" fill="#1D1E25"/>
<path fill-rule="evenodd" clip-rule="evenodd" d="M58.2627 45.0358C58.2627 49.0052 54.9373 52.2276 50.8303 52.2276C46.7244 52.2276 43.3979 49.0052 43.3979 45.0358C43.3979 41.0673 46.7234 37.845 50.8303 37.845C54.9373 37.845 58.2627 41.0673 58.2627 45.0368V45.0358Z" fill="white"/>
<path fill-rule="evenodd" clip-rule="evenodd" d="M58.3031 43.8176C58.2029 43.2678 58.0423 42.8355 57.8826 42.2268C57.2409 40.8901 56.2997 39.8492 55.057 38.9646C50.4096 35.8807 44.0185 38.8471 43.3382 44.1135C43.0783 46.1963 43.8192 48.2004 45.1412 49.7334C44.7406 49.32 44.3002 48.8887 43.9997 48.3967L43.96 48.4365C43.9997 48.554 44.1604 48.6327 44.2 48.7503C44.2 48.7503 44.0394 48.7503 44.08 48.7303C43.96 48.5939 44.0602 48.81 44.2397 49.1039C44.4004 49.3987 44.6007 49.6746 44.8407 49.9296C45.1819 50.3032 45.5419 50.6369 46.1429 51.0891C47.0256 51.5403 47.8061 52.13 48.8277 52.4049C49.1083 52.4846 49.4287 52.5623 49.75 52.6211C50.0902 52.6809 50.4105 52.7008 50.7716 52.7008C51.1117 52.7008 51.4727 52.6609 51.9131 52.5812C52.3672 52.5275 52.816 52.4359 53.255 52.3073C54.2354 52.0109 55.1386 51.5007 55.9 50.8132C56.2809 50.4606 56.8224 50.0083 57.2419 49.4186C57.5831 48.7513 57.6228 48.4166 57.7834 48.1217C57.9431 47.8269 58.1434 47.4932 58.2843 47.041C58.3991 46.5045 58.4661 45.9588 58.4846 45.4104C58.4648 44.8605 58.4251 44.3296 58.3041 43.8186L58.3031 43.8176ZM53.5346 40.1639C54.216 40.5564 54.3162 40.6152 53.9552 40.3602C54.4768 40.4777 54.7972 40.7726 55.1175 41.0674C55.899 41.9519 56.5397 42.9928 56.8601 44.1911C57.0406 45.5468 56.8997 46.9025 56.3196 48.1018C55.2782 49.9286 53.615 51.1469 51.6314 51.4806C51.4113 51.4806 51.1712 51.4806 50.9501 51.5005C51.5114 51.4019 51.8724 51.0483 52.894 50.6747C53.9948 50.2823 55.2375 48.4554 55.8395 47.3936C57.6019 44.5049 55.5182 41.8334 53.5346 40.1639ZM49.7689 51.5194C46.7241 51.2056 44.3795 48.7104 44.0592 45.8218C44.3389 47.4334 45.3009 48.6706 46.6031 49.7713C47.0643 50.0661 47.7446 50.4785 48.2058 50.7733C48.9873 51.0682 49.4475 51.3829 50.2092 51.5204H49.7689V51.5194ZM57.9619 46.274C57.8231 46.8836 57.6823 47.4723 57.5414 48.0819C57.2409 48.829 56.8006 49.595 56.1996 50.2036C55.5985 50.8132 54.8369 51.2843 54.0762 51.7366C53.4751 52.0503 52.7135 52.2077 52.0926 52.3641C51.7316 52.4039 51.3111 52.2466 50.9501 52.2276C55.3982 52.1091 58.443 47.9644 57.7824 43.8575C57.4611 42.6592 56.8204 41.6172 56.0389 40.5763C55.7185 40.1241 55.0967 39.8492 54.6365 39.3969C51.8516 37.6488 48.1662 38.0024 46.0626 40.3014C45.7676 40.6035 45.493 40.925 45.2404 41.2636C46.3631 39.6131 48.1662 38.4546 50.3292 38.12C51.0909 38.1 51.8724 38.2385 52.6331 38.376C55.9992 39.3969 58.5035 42.6592 57.9619 46.275V46.274Z" fill="#D7DF23"/>
</g>
</g>
<defs>
<clipPath id="clip0_134_686">
<rect width="160" height="90" fill="white" transform="translate(0.5)"/>
</clipPath>
<clipPath id="clip1_134_686">
<rect width="92.2353" height="31.875" fill="white" transform="translate(34.3823 29.0625)"/>
</clipPath>
</defs>
</svg>
