<svg width="161" height="90" viewBox="0 0 161 90" fill="none" xmlns="http://www.w3.org/2000/svg">
<g clip-path="url(#clip0_134_677)">
<rect x="0.5" width="160" height="90" rx="16" fill="white"/>
<g clip-path="url(#clip1_134_677)">
<path d="M74.3141 45.3847C74.3141 49.5488 71.0302 52.6173 67 52.6173C62.9699 52.6173 59.686 49.5488 59.686 45.3847C59.686 41.1912 62.9699 38.1521 67 38.1521C71.0302 38.1521 74.3141 41.1912 74.3141 45.3847ZM71.1123 45.3847C71.1123 42.7825 69.209 41.0021 67 41.0021C64.7911 41.0021 62.8878 42.7825 62.8878 45.3847C62.8878 47.9608 64.7911 49.7673 67 49.7673C69.209 49.7673 71.1123 47.9575 71.1123 45.3847Z" fill="#EA4335"/>
<path d="M90.0924 45.3847C90.0924 49.5488 86.8085 52.6173 82.7784 52.6173C78.7483 52.6173 75.4644 49.5488 75.4644 45.3847C75.4644 41.1945 78.7483 38.1521 82.7784 38.1521C86.8085 38.1521 90.0924 41.1912 90.0924 45.3847ZM86.8906 45.3847C86.8906 42.7825 84.9874 41.0021 82.7784 41.0021C80.5694 41.0021 78.6661 42.7825 78.6661 45.3847C78.6661 47.9608 80.5694 49.7673 82.7784 49.7673C84.9874 49.7673 86.8906 47.9575 86.8906 45.3847Z" fill="#FBBC05"/>
<path d="M105.214 38.5891V51.5738C105.214 56.9151 102.038 59.0967 98.2841 59.0967C94.7503 59.0967 92.6235 56.7521 91.8214 54.8347L94.609 53.6836C95.1054 54.8608 96.3216 56.2499 98.2808 56.2499C100.684 56.2499 102.173 54.7793 102.173 52.0108V50.9706H102.061C101.344 51.8478 99.9638 52.6141 98.2216 52.6141C94.5761 52.6141 91.2363 49.4641 91.2363 45.4108C91.2363 41.3282 94.5761 38.1521 98.2216 38.1521C99.9606 38.1521 101.341 38.9184 102.061 39.7695H102.173V38.5923H105.214V38.5891ZM102.4 45.4108C102.4 42.8641 100.687 41.0021 98.5076 41.0021C96.2986 41.0021 94.4479 42.8641 94.4479 45.4108C94.4479 47.9314 96.2986 49.7673 98.5076 49.7673C100.687 49.7673 102.4 47.9314 102.4 45.4108Z" fill="#4285F4"/>
<path d="M110.226 30.9783V52.1739H107.104V30.9783H110.226Z" fill="#34A853"/>
<path d="M122.396 47.7652L124.881 49.4087C124.079 50.5859 122.146 52.6141 118.806 52.6141C114.665 52.6141 111.571 49.4381 111.571 45.3815C111.571 41.0804 114.691 38.1489 118.448 38.1489C122.232 38.1489 124.082 41.1359 124.687 42.75L125.019 43.5718L115.273 47.5761C116.019 49.0272 117.179 49.7674 118.806 49.7674C120.437 49.7674 121.568 48.9718 122.396 47.7652ZM114.747 45.1631L121.262 42.4794C120.904 41.5761 119.825 40.9468 118.557 40.9468C116.929 40.9468 114.665 42.3718 114.747 45.1631Z" fill="#EA4335"/>
<path d="M47.8655 43.5033V40.4348H58.2892C58.3911 40.9696 58.4437 41.6022 58.4437 42.287C58.4437 44.5892 57.8093 47.4359 55.7646 49.4642C53.7759 51.5185 51.2349 52.6142 47.8688 52.6142C41.6297 52.6142 36.3833 47.5729 36.3833 41.3838C36.3833 35.1946 41.6297 30.1533 47.8688 30.1533C51.3203 30.1533 53.7792 31.4968 55.6266 33.2479L53.4439 35.4131C52.1191 34.1805 50.3243 33.2218 47.8655 33.2218C43.3094 33.2218 39.7461 36.8642 39.7461 41.3838C39.7461 45.9033 43.3094 49.5457 47.8655 49.5457C50.8207 49.5457 52.5037 48.3685 53.5819 47.299C54.4563 46.4316 55.0316 45.1925 55.2584 43.5001L47.8655 43.5033Z" fill="#4285F4"/>
</g>
</g>
<defs>
<clipPath id="clip0_134_677">
<rect width="160" height="90" fill="white" transform="translate(0.5)"/>
</clipPath>
<clipPath id="clip1_134_677">
<rect width="89.4118" height="30" fill="white" transform="translate(36.2646 30)"/>
</clipPath>
</defs>
</svg>
