<svg width="161" height="90" viewBox="0 0 161 90" fill="none" xmlns="http://www.w3.org/2000/svg">
<g clip-path="url(#clip0_134_645)">
<rect x="0.5" width="160" height="90" rx="16" fill="white"/>
<g clip-path="url(#clip1_134_645)">
<path d="M60.2895 51.2616C60.1374 50.896 59.9948 50.5116 59.8428 50.1835L59.1395 48.6178L59.111 48.5897C57.0201 44.0897 54.7866 39.5147 52.4201 35.0147L52.3251 34.8272C52.0875 34.3866 51.8499 33.8991 51.6028 33.4491C51.2987 32.9147 51.004 32.3428 50.5193 31.7991C50.0469 31.2302 49.4522 30.7718 48.7784 30.457C48.1045 30.1423 47.3682 29.979 46.6227 29.979C45.8771 29.979 45.1408 30.1423 44.4669 30.457C43.7931 30.7718 43.1985 31.2302 42.726 31.7991C42.2793 32.3428 41.9467 32.9147 41.6425 33.4491C41.4049 33.9366 41.1673 34.4147 40.9202 34.8553L40.8252 35.0428C38.4967 39.5428 36.2252 44.1178 34.1344 48.6178L34.0773 48.6741C33.8682 49.1616 33.6211 49.6678 33.3835 50.2116C33.2315 50.5397 33.0794 50.896 32.9273 51.2897C32.5168 52.3208 32.3857 53.4396 32.547 54.5358C32.7082 55.632 33.1563 56.6679 33.847 57.5414C34.5377 58.4148 35.4472 59.0956 36.4859 59.5167C37.5245 59.9378 38.6565 60.0847 39.7703 59.9428C40.838 59.8042 41.8662 59.4534 42.7925 58.9116C44.0281 58.2272 45.2161 57.2335 46.5466 55.7991C47.8772 57.2335 49.0937 58.2272 50.3007 58.921C51.4615 59.593 52.7759 59.9639 54.1214 59.9991C55.6794 60.0055 57.1872 59.4556 58.3663 58.451C59.5454 57.4464 60.3163 56.0549 60.5366 54.5335C60.7911 53.4401 60.705 52.2965 60.2895 51.2522V51.2616ZM46.6417 52.8178C45.007 50.7553 43.9425 48.8616 43.5814 47.2397C43.4317 46.6387 43.3995 46.0151 43.4863 45.4022C43.5529 44.9241 43.7334 44.5022 43.9805 44.146C44.5508 43.3303 45.5487 42.8241 46.6417 42.8241C47.1607 42.8085 47.6756 42.9202 48.1401 43.1493C48.6045 43.3783 49.0041 43.7176 49.3028 44.1366C49.5499 44.5116 49.7305 44.9241 49.7875 45.4022C49.8825 45.946 49.8445 46.5741 49.6925 47.2397C49.3313 48.8335 48.2669 50.746 46.6417 52.8178ZM58.7498 54.2053C58.6418 54.9778 58.3305 55.7088 57.847 56.3257C57.3634 56.9425 56.7244 57.4236 55.9936 57.721C55.2713 58.021 54.473 58.1053 53.6937 58.021C52.9333 57.9272 52.173 57.6835 51.3937 57.2335C50.0997 56.4446 48.9362 55.4644 47.9437 54.3272C49.9396 51.8897 51.1466 49.6678 51.6028 47.6897C51.8214 46.7522 51.8499 45.9085 51.7548 45.1303C51.6362 44.3928 51.3574 43.6893 50.9375 43.0678C50.4581 42.394 49.8182 41.8467 49.0742 41.474C48.3301 41.1013 47.5046 40.9146 46.6702 40.9303C44.9119 40.9303 43.3438 41.7366 42.3934 43.0585C41.9655 43.6783 41.689 44.3875 41.5855 45.1303C41.462 45.9178 41.4905 46.7897 41.7376 47.6897C42.1938 49.6678 43.4293 51.9178 45.3966 54.346C44.421 55.5049 43.2548 56.4937 41.9467 57.271C41.1578 57.721 40.407 57.9553 39.6467 58.0491C38.4643 58.1985 37.2699 57.8815 36.3231 57.167C35.3763 56.4525 34.7537 55.3983 34.5906 54.2335C34.4955 53.4835 34.562 52.7335 34.8662 51.8897C34.9612 51.5897 35.1038 51.2897 35.2558 50.9335C35.4649 50.446 35.712 49.9397 35.9496 49.4335L35.9876 49.3678C38.0405 44.896 40.2835 40.3303 42.612 35.8585L42.707 35.671C42.9446 35.221 43.1822 34.7428 43.4293 34.2928C43.6764 33.8147 43.9425 33.3553 44.2847 32.9803C44.5808 32.6316 44.9509 32.3512 45.3688 32.1587C45.7867 31.9663 46.2423 31.8666 46.7034 31.8666C47.1646 31.8666 47.6202 31.9663 48.0381 32.1587C48.456 32.3512 48.8261 32.6316 49.1222 32.9803C49.4549 33.3553 49.7305 33.8147 49.9776 34.2928C50.2152 34.7428 50.4528 35.2303 50.6999 35.671L50.7949 35.8585C53.1139 40.3303 55.3569 44.896 57.4478 49.3678L57.4763 49.396C57.7234 49.8835 57.9325 50.4272 58.1701 50.896C58.3221 51.2616 58.4742 51.5522 58.5692 51.8616C58.7498 52.7053 58.8449 53.4553 58.7498 54.2053ZM71.9794 52.6116C71.2633 52.6219 70.5539 52.4731 69.904 52.1761C69.2542 51.8791 68.6804 51.4416 68.2253 50.896C67.2028 49.7334 66.6601 48.2345 66.7047 46.696C66.689 45.124 67.2493 43.5993 68.2824 42.4022C68.7602 41.8497 69.3551 41.4072 70.025 41.1059C70.695 40.8046 71.4238 40.6519 72.16 40.6585C72.8528 40.6398 73.539 40.7952 74.1542 41.11C74.7693 41.4249 75.2932 41.8889 75.6765 42.4585L75.7715 40.9866H78.5467V52.3116H75.762L75.667 50.6616C75.2718 51.2697 74.7256 51.7681 74.0802 52.1094C73.4348 52.4507 72.7116 52.6235 71.9794 52.6116ZM72.7017 49.9116C73.253 49.9116 73.7377 49.7616 74.1939 49.4897C74.6121 49.1897 74.9542 48.796 75.2203 48.3178C75.4579 47.8397 75.5815 47.2678 75.5815 46.6303C75.6185 46.0767 75.5093 45.523 75.2644 45.0234C75.0195 44.5238 74.6474 44.0955 74.1844 43.7803C73.7395 43.5069 73.2259 43.362 72.7017 43.362C72.1776 43.362 71.664 43.5069 71.2191 43.7803C70.8009 44.0803 70.4588 44.4741 70.1927 44.9522C69.9413 45.4795 69.8177 46.0572 69.8315 46.6397C69.7945 47.1934 69.9037 47.7471 70.1486 48.2467C70.3935 48.7462 70.7656 49.1745 71.2286 49.4897C71.6753 49.7616 72.16 49.9116 72.7017 49.9116ZM83.2987 37.9303C83.2987 38.2585 83.2417 38.5585 83.0897 38.8022C82.9376 39.0366 82.7285 39.2522 82.4529 39.4022C82.1773 39.5522 81.8826 39.6085 81.5785 39.6085C81.2744 39.6085 80.9703 39.5522 80.6946 39.4022C80.434 39.2591 80.2148 39.0525 80.0579 38.8022C79.9107 38.5352 79.8385 38.2342 79.8488 37.9303C79.8488 37.5928 79.9153 37.2928 80.0579 37.0585C80.2099 36.7772 80.4285 36.6085 80.6946 36.4585C80.9703 36.3085 81.2649 36.2428 81.5785 36.2428C81.881 36.236 82.1802 36.3066 82.4467 36.448C82.7133 36.5893 82.9381 36.7964 83.0992 37.0491C83.2375 37.3224 83.306 37.6249 83.2987 37.9303ZM80.0674 52.2741V40.9678H83.0897V52.2928H80.0579L80.0674 52.2741ZM91.1681 43.9303V43.9678C91.0255 43.9022 90.8354 43.8741 90.6929 43.846C90.5028 43.8085 90.3507 43.8085 90.1702 43.8085C89.3243 43.8085 88.6875 44.0522 88.2694 44.5585C87.8132 45.0741 87.6041 45.796 87.6041 46.7241V52.2835H84.5723V40.9585H87.357L87.452 42.6741C87.7561 42.0741 88.1173 41.6241 88.6305 41.2866C89.141 40.9587 89.742 40.7949 90.3507 40.8178C90.5693 40.8178 90.7784 40.8366 90.959 40.8741C91.054 40.9022 91.1111 40.9022 91.1681 40.9303V43.9303ZM92.3846 52.2741V36.3178H95.4069V42.4116C95.8346 41.8678 96.3193 41.446 96.9275 41.1178C97.8905 40.6521 98.9844 40.52 100.033 40.7428C101.081 40.9657 102.023 41.5304 102.706 42.346C103.731 43.5109 104.274 45.0136 104.227 46.5553C104.242 48.1273 103.682 49.6521 102.649 50.8491C102.171 51.4016 101.576 51.8441 100.906 52.1454C100.236 52.4467 99.5076 52.5994 98.7713 52.5928C98.0785 52.6115 97.3923 52.4562 96.7772 52.1413C96.162 51.8264 95.6382 51.3624 95.2548 50.7928L95.1598 52.2647L92.3846 52.2928V52.2741ZM98.2296 49.9116C98.7713 49.9116 99.256 49.7616 99.7122 49.4897C100.13 49.1897 100.473 48.796 100.739 48.3178C100.986 47.8397 101.1 47.2678 101.1 46.6303C101.1 46.0022 100.986 45.4303 100.739 44.9522C100.489 44.4912 100.138 44.0909 99.7122 43.7803C99.2674 43.5069 98.7537 43.362 98.2296 43.362C97.7055 43.362 97.1918 43.5069 96.747 43.7803C96.3193 44.0803 95.9866 44.4741 95.711 44.9522C95.4597 45.4795 95.336 46.0572 95.3499 46.6397C95.3128 47.1934 95.4221 47.7471 95.667 48.2467C95.9119 48.7462 96.284 49.1745 96.747 49.4897C97.1936 49.7616 97.6784 49.9116 98.2296 49.9116ZM105.367 52.2835V40.9585H108.152L108.247 42.4303C108.597 41.8661 109.093 41.4044 109.685 41.0929C110.276 40.7814 110.941 40.6314 111.611 40.6585C112.377 40.6454 113.13 40.8555 113.776 41.2623C114.422 41.6692 114.932 42.2548 115.242 42.946C115.574 43.6585 115.755 44.5397 115.755 45.5241V52.3116H112.723V45.9178C112.723 45.1303 112.543 44.5116 112.182 44.0522C111.82 43.6022 111.326 43.3585 110.699 43.3585C110.243 43.3585 109.844 43.4522 109.492 43.6585C109.159 43.8741 108.884 44.146 108.675 44.5303C108.463 44.9189 108.358 45.3552 108.37 45.796V52.2835H105.367ZM117.266 52.2835V36.3085H120.298V42.4022C120.709 41.8554 121.243 41.4106 121.858 41.103C122.474 40.7955 123.153 40.6336 123.843 40.6303C124.559 40.62 125.268 40.7689 125.918 41.0659C126.568 41.3629 127.142 41.8004 127.597 42.346C128.615 43.5108 129.154 45.009 129.108 46.546C129.125 48.1181 128.564 49.6431 127.531 50.8397C127.053 51.3923 126.458 51.8348 125.788 52.136C125.118 52.4373 124.389 52.59 123.653 52.5835C122.96 52.6022 122.274 52.4468 121.659 52.1319C121.044 51.817 120.52 51.353 120.136 50.7835L120.051 52.2553L117.266 52.2835ZM123.14 49.9116C123.691 49.9116 124.176 49.7616 124.622 49.4897C125.05 49.1897 125.383 48.796 125.658 48.3178C125.896 47.8397 126.019 47.2678 126.019 46.6303C126.056 46.0767 125.947 45.523 125.702 45.0234C125.457 44.5238 125.085 44.0955 124.622 43.7803C124.177 43.5069 123.664 43.362 123.14 43.362C122.616 43.362 122.102 43.5069 121.657 43.7803C121.239 44.0803 120.897 44.4741 120.631 44.9522C120.365 45.4748 120.241 46.056 120.269 46.6397C120.232 47.1934 120.342 47.7471 120.587 48.2467C120.831 48.7462 121.204 49.1745 121.667 49.4897C122.113 49.7616 122.569 49.9116 123.14 49.9116Z" fill="#FF385C"/>
</g>
</g>
<defs>
<clipPath id="clip0_134_645">
<rect x="0.5" width="160" height="90" fill="white"/>
</clipPath>
<clipPath id="clip1_134_645">
<rect width="96.9412" height="30" fill="white" transform="translate(32.5 30)"/>
</clipPath>
</defs>
</svg>
