<svg width="161" height="90" viewBox="0 0 161 90" fill="none" xmlns="http://www.w3.org/2000/svg">
<g clip-path="url(#clip0_134_698)">
<rect x="0.5" width="160" height="90" rx="16" fill="white"/>
<g clip-path="url(#clip1_134_698)">
<path d="M105.972 58.725C113.481 58.725 119.591 52.5405 119.591 44.94C119.591 37.335 113.481 31.155 105.972 31.155C98.4614 31.155 92.353 37.335 92.353 44.94C92.353 52.5405 98.4614 58.725 105.972 58.725ZM105.972 40.0245C108.648 40.0245 110.827 42.2295 110.827 44.9385C110.827 47.6475 108.647 49.8495 105.97 49.8495C103.293 49.8495 101.117 47.6475 101.117 44.937C101.117 42.225 103.294 40.0215 105.97 40.0215L105.972 40.0245ZM54.5897 58.725C62.0988 58.725 68.2087 52.5405 68.2087 44.94C68.2087 37.335 62.0988 31.155 54.5897 31.155C47.0821 31.155 40.9707 37.335 40.9707 44.94C40.9707 52.5405 47.0821 58.725 54.5897 58.725ZM54.5897 40.0245C57.2673 40.0245 59.4451 42.2295 59.4451 44.9385C59.4451 47.6475 57.2673 49.8495 54.5897 49.8495C51.9136 49.8495 49.7373 47.6475 49.7373 44.937C49.7373 42.225 51.9151 40.0215 54.5897 40.0215V40.0245ZM80.2734 39.714L76.0922 31.335H66.3023L75.4463 49.665V58.2945H85.1019V49.665L94.2459 31.335H84.4516L80.2749 39.714H80.2734Z" fill="#EE2E24"/>
</g>
</g>
<defs>
<clipPath id="clip0_134_698">
<rect width="160" height="90" fill="white" transform="translate(0.5)"/>
</clipPath>
<clipPath id="clip1_134_698">
<rect width="79.0588" height="30" fill="white" transform="translate(40.9707 30)"/>
</clipPath>
</defs>
</svg>
