<svg width="161" height="90" viewBox="0 0 161 90" fill="none" xmlns="http://www.w3.org/2000/svg">
<g clip-path="url(#clip0_134_668)">
<rect x="0.5" width="160" height="90" rx="16" fill="white"/>
<g clip-path="url(#clip1_134_668)">
<path d="M63.619 46.8516L62.9346 48.779H62.8776C62.7635 48.3444 62.5544 47.683 62.2122 46.8894L58.5432 37.7252H54.9502V52.3313H57.3265V43.3182C57.3265 42.7513 57.3265 42.1089 57.3075 41.3153C57.2885 40.9185 57.2505 40.6162 57.2315 40.3894H57.2885C57.4025 40.9563 57.5356 41.372 57.6307 41.6365L62.0411 52.2935H63.714L68.0865 41.542C68.1815 41.2964 68.2766 40.8051 68.3716 40.3894H68.4287C68.3716 41.4665 68.3336 42.4301 68.3146 43.0159V52.2746H70.843V37.6874H67.3831L63.619 46.8516ZM73.2383 41.8066H75.7097V52.2746H73.2383V41.8066ZM74.493 37.3851C74.0748 37.3851 73.7326 37.5362 73.4474 37.8008C73.1623 38.0653 73.0102 38.4054 73.0102 38.8211C73.0102 39.2179 73.1623 39.558 73.4474 39.8226C73.7326 40.0871 74.0748 40.2194 74.493 40.2194C74.9112 40.2194 75.2724 40.0682 75.5386 39.8226C75.8237 39.558 75.9758 39.2179 75.9758 38.8211C75.9758 38.4243 75.8237 38.0842 75.5386 37.8008C75.2914 37.5362 74.9302 37.3851 74.493 37.3851ZM84.4735 41.7121C84.0173 41.6176 83.542 41.5609 83.0858 41.5609C81.9641 41.5609 80.9376 41.8066 80.0821 42.2979C79.2266 42.7891 78.5422 43.4694 78.105 44.3197C77.6488 45.1888 77.4206 46.1903 77.4206 47.3429C77.4206 48.3444 77.6487 49.2324 78.086 50.0449C78.5232 50.8385 79.1316 51.481 79.949 51.9156C80.7285 52.3502 81.641 52.5769 82.6675 52.5769C83.8462 52.5769 84.8537 52.3313 85.6522 51.8778L85.6712 51.8589V49.5915L85.5761 49.667C85.2149 49.9316 84.7967 50.1583 84.3785 50.2906C83.9412 50.4417 83.542 50.5173 83.1998 50.5173C82.2113 50.5173 81.4318 50.2339 80.8805 49.6104C80.3102 49.0057 80.0251 48.1743 80.0251 47.1351C80.0251 46.058 80.3102 45.2077 80.8996 44.5842C81.4889 43.9606 82.2683 43.6394 83.2188 43.6394C84.0173 43.6394 84.8347 43.904 85.5761 44.433L85.6712 44.5086V42.1089L85.6522 42.09C85.329 41.9577 84.9678 41.8066 84.4735 41.7121ZM92.629 41.6365C92.0207 41.6365 91.4504 41.8255 90.9561 42.2223C90.5379 42.5624 90.2527 43.0537 90.0056 43.6394H89.9866V41.8066H87.5152V52.2746H89.9866V46.9272C89.9866 46.0202 90.1767 45.2644 90.5949 44.7165C91.0131 44.1496 91.5454 43.8662 92.1918 43.8662C92.4199 43.8662 92.648 43.9229 92.9332 43.9606C93.1994 44.0362 93.3895 44.1118 93.5225 44.2063L93.6176 44.2819V41.8255L93.5606 41.8066C93.3895 41.6932 93.0473 41.6365 92.629 41.6365ZM99.3588 41.5798C97.6288 41.5798 96.241 42.09 95.2715 43.0915C94.283 44.0929 93.8077 45.4723 93.8077 47.2106C93.8077 48.8356 94.302 50.1583 95.2525 51.122C96.203 52.0667 97.4957 52.558 99.1116 52.558C100.804 52.558 102.153 52.0479 103.123 51.0275C104.111 50.0072 104.587 48.6467 104.587 46.965C104.587 45.3022 104.13 43.9795 103.199 43.0159C102.305 42.0522 100.994 41.5798 99.3588 41.5798ZM101.336 49.6292C100.88 50.215 100.157 50.4984 99.2637 50.4984C98.3702 50.4984 97.6478 50.215 97.1345 49.5915C96.6212 49.0057 96.3741 48.1554 96.3741 47.0784C96.3741 45.9635 96.6403 45.1133 97.1345 44.5086C97.6478 43.904 98.3512 43.6016 99.2447 43.6016C100.119 43.6016 100.804 43.8851 101.298 44.4708C101.792 45.0566 102.058 45.9069 102.058 47.0217C102.02 48.1554 101.811 49.0435 101.336 49.6292ZM110.1 46.1525C109.32 45.8313 108.826 45.5856 108.598 45.3778C108.408 45.1888 108.313 44.9243 108.313 44.5842C108.313 44.3008 108.427 44.0173 108.712 43.8284C108.997 43.6394 109.32 43.5449 109.796 43.5449C110.214 43.5449 110.651 43.6205 111.069 43.7339C111.487 43.8473 111.868 44.0173 112.172 44.2441L112.267 44.3197V42.0144L112.21 41.9955C111.925 41.8822 111.545 41.7688 111.088 41.6743C110.632 41.5987 110.214 41.5609 109.872 41.5609C108.693 41.5609 107.723 41.8444 106.963 42.4679C106.203 43.0537 105.841 43.8473 105.841 44.7731C105.841 45.2644 105.917 45.699 106.088 46.058C106.26 46.417 106.507 46.7572 106.849 47.0406C107.191 47.3051 107.685 47.6074 108.37 47.8909C108.94 48.1365 109.377 48.3255 109.643 48.4766C109.91 48.6278 110.081 48.7979 110.214 48.9301C110.309 49.0813 110.366 49.2702 110.366 49.5159C110.366 50.215 109.834 50.5551 108.75 50.5551C108.332 50.5551 107.894 50.4795 107.381 50.3095C106.868 50.1394 106.393 49.8938 105.993 49.6104L105.898 49.5348V51.9345L105.955 51.9534C106.317 52.1234 106.754 52.2368 107.286 52.3691C107.818 52.4635 108.294 52.5391 108.712 52.5391C109.986 52.5391 111.031 52.2557 111.773 51.6322C112.533 51.0275 112.932 50.2528 112.932 49.2513C112.932 48.5522 112.742 47.9287 112.324 47.4563C111.773 47.0028 111.088 46.5304 110.1 46.1525ZM119.453 41.5798C117.723 41.5798 116.335 42.09 115.366 43.0915C114.396 44.0929 113.902 45.4723 113.902 47.2106C113.902 48.8356 114.396 50.1583 115.347 51.122C116.297 52.0667 117.59 52.558 119.206 52.558C120.898 52.558 122.247 52.0479 123.217 51.0275C124.206 50.0072 124.681 48.6467 124.681 46.965C124.681 45.3022 124.225 43.9795 123.293 43.0159C122.4 42.0522 121.088 41.5798 119.453 41.5798ZM121.411 49.6292C120.955 50.215 120.232 50.4984 119.339 50.4984C118.426 50.4984 117.723 50.215 117.21 49.5915C116.696 49.0057 116.449 48.1554 116.449 47.0784C116.449 45.9635 116.715 45.1133 117.21 44.5086C117.723 43.904 118.426 43.6016 119.32 43.6016C120.175 43.6016 120.879 43.8851 121.373 44.4708C121.867 45.0566 122.133 45.9069 122.133 47.0217C122.133 48.1554 121.886 49.0435 121.411 49.6292ZM137.893 43.8284V41.8066H135.403V38.7077L135.327 38.7266L132.969 39.4258L132.912 39.4447V41.8066H129.186V40.4839C129.186 39.8792 129.338 39.4069 129.604 39.1045C129.871 38.8022 130.27 38.651 130.764 38.651C131.106 38.651 131.468 38.7266 131.867 38.8967L131.962 38.9534V36.8182L131.905 36.7993C131.563 36.6859 131.106 36.6104 130.517 36.6104C129.776 36.6104 129.129 36.7804 128.54 37.0638C127.951 37.3851 127.513 37.8197 127.19 38.4054C126.867 38.9723 126.696 39.6147 126.696 40.3516V41.8066H124.966V43.8095H126.696V52.2746H129.186V43.8284H132.912V49.2136C132.912 51.4243 133.958 52.5391 136.049 52.5391C136.391 52.5391 136.752 52.4824 137.095 52.4258C137.456 52.3502 137.722 52.2557 137.874 52.1801L137.893 52.1612V50.1394L137.798 50.215C137.646 50.3095 137.513 50.3851 137.285 50.4417C137.095 50.4984 136.924 50.5173 136.79 50.5173C136.296 50.5173 135.954 50.404 135.707 50.1205C135.479 49.856 135.365 49.4214 135.365 48.779V43.8284H137.893Z" fill="#737373"/>
<path d="M23.0884 32.8125H34.7418V44.3953H23.0884V32.8125Z" fill="#F25022"/>
<path d="M35.9585 32.8125H47.6119V44.3953H35.9585V32.8125Z" fill="#7FBA00"/>
<path d="M23.0884 45.6047H34.7418V57.1876H23.0884V45.6047Z" fill="#00A4EF"/>
<path d="M35.9585 45.6047H47.6119V57.1876H35.9585V45.6047Z" fill="#FFB900"/>
</g>
</g>
<defs>
<clipPath id="clip0_134_668">
<rect width="160" height="90" fill="white" transform="translate(0.5)"/>
</clipPath>
<clipPath id="clip1_134_668">
<rect width="114.824" height="24.375" fill="white" transform="translate(23.0884 32.8125)"/>
</clipPath>
</defs>
</svg>
