<svg width="161" height="90" viewBox="0 0 161 90" fill="none" xmlns="http://www.w3.org/2000/svg">
<g clip-path="url(#clip0_134_649)">
<rect x="0.5" width="160" height="90" rx="16" fill="white"/>
<g clip-path="url(#clip1_134_649)">
<path fill-rule="evenodd" clip-rule="evenodd" d="M92.6402 53.461C87.0068 57.725 78.8415 60.0001 71.8114 60.0001C61.9539 60.0001 53.0797 56.256 46.3661 50.0289C45.8386 49.5393 46.3112 48.8719 46.9442 49.2533C54.1895 53.5823 63.1481 56.1867 72.4021 56.1867C78.6432 56.1867 85.5088 54.8607 91.8216 52.109C92.7753 51.693 93.5728 52.7503 92.6402 53.461Z" fill="#FF9900"/>
<path fill-rule="evenodd" clip-rule="evenodd" d="M94.9824 50.7093C94.2651 49.7646 90.2225 50.2629 88.408 50.4839C87.8552 50.5533 87.7708 50.0593 88.2688 49.7039C91.4885 47.3769 96.7716 48.0486 97.3877 48.8286C98.0038 49.6129 97.2274 55.0513 94.2018 57.647C93.7376 58.0457 93.2945 57.8333 93.5013 57.3047C94.1807 55.5627 95.704 51.6583 94.9824 50.7093Z" fill="#FF9900"/>
<path fill-rule="evenodd" clip-rule="evenodd" d="M88.5349 33.2762V31.0141C88.5349 30.6718 88.7881 30.4421 89.0919 30.4421H98.9535C99.27 30.4421 99.5232 30.6761 99.5232 31.0141V32.9512C99.519 33.2762 99.2531 33.7008 98.7805 34.3725L93.6703 41.8649C95.5693 41.8173 97.5737 42.1076 99.2953 43.1043C99.6835 43.3296 99.789 43.6589 99.8186 43.9839V46.3976C99.8186 46.727 99.4641 47.1126 99.0928 46.9133C96.0587 45.2796 92.0288 45.102 88.6741 46.9306C88.3323 47.1213 87.9736 46.74 87.9736 46.4106V44.1183C87.9736 43.7499 87.9778 43.1216 88.3365 42.5626L94.2569 33.8438H89.1045C88.788 33.8438 88.5349 33.6142 88.5349 33.2762Z" fill="#1D1E25"/>
<path fill-rule="evenodd" clip-rule="evenodd" d="M52.5611 47.3898H49.5608C49.2739 47.3681 49.046 47.1471 49.0249 46.8654V31.053C49.0249 30.7366 49.2823 30.4853 49.603 30.4853H52.4007C52.6919 30.4983 52.924 30.728 52.9451 31.014V33.081H52.9999C53.73 31.0833 55.1014 30.1516 56.9497 30.1516C58.8275 30.1516 60.0006 31.0833 60.8445 33.081C61.5703 31.0833 63.2203 30.1516 64.9884 30.1516C66.2459 30.1516 67.6215 30.6846 68.4612 31.8806C69.4107 33.211 69.2166 35.1437 69.2166 36.838L69.2124 46.8178C69.2124 47.1341 68.955 47.3898 68.6343 47.3898H65.6382C65.3386 47.3681 65.0981 47.1211 65.0981 46.8178V38.437C65.0981 37.7697 65.1571 36.1057 65.0137 35.473C64.79 34.4113 64.1191 34.1123 63.2498 34.1123C62.524 34.1123 61.7644 34.6107 61.4564 35.408C61.1484 36.2053 61.1779 37.54 61.1779 38.437V46.8178C61.1779 47.1341 60.9205 47.3898 60.5998 47.3898H57.6037C57.2999 47.3681 57.0636 47.1211 57.0636 46.8178L57.0594 38.437C57.0594 36.6733 57.3421 34.0777 55.2111 34.0777C53.0548 34.0777 53.1392 36.6083 53.1392 38.437V46.8178C53.1392 47.1341 52.8818 47.3898 52.5611 47.3898" fill="#1D1E25"/>
<path fill-rule="evenodd" clip-rule="evenodd" d="M108.013 30.1516C112.465 30.1516 114.874 34.0777 114.874 39.0697C114.874 43.8928 112.212 47.7191 108.013 47.7191C103.641 47.7191 101.261 43.7931 101.261 38.9007C101.261 33.978 103.671 30.1516 108.013 30.1516ZM108.038 33.38C105.827 33.38 105.688 36.474 105.688 38.4024C105.688 40.3351 105.658 44.4604 108.013 44.4604C110.338 44.4604 110.448 41.1324 110.448 39.1044C110.448 37.7697 110.393 36.175 110 34.9097C109.663 33.809 108.992 33.38 108.038 33.38Z" fill="#1D1E25"/>
<path fill-rule="evenodd" clip-rule="evenodd" d="M120.647 47.3898H117.66C117.36 47.3681 117.119 47.1211 117.119 46.8178L117.115 31.001C117.141 30.7106 117.39 30.4853 117.693 30.4853H120.474C120.736 30.4983 120.951 30.6803 121.01 30.9273V33.3453H121.065C121.905 31.183 123.082 30.1516 125.154 30.1516C126.5 30.1516 127.812 30.65 128.656 32.015C129.441 33.2803 129.441 35.408 129.441 36.9377V46.8914C129.407 47.1688 129.158 47.3898 128.863 47.3898H125.854C125.58 47.3681 125.352 47.1601 125.323 46.8914V38.3027C125.323 36.5737 125.517 34.043 123.445 34.043C122.715 34.043 122.044 34.5457 121.711 35.3083C121.289 36.2747 121.234 37.2367 121.234 38.3027V46.8178C121.23 47.1341 120.968 47.3898 120.647 47.3898" fill="#1D1E25"/>
<path fill-rule="evenodd" clip-rule="evenodd" d="M80.673 39.8368C80.673 41.0371 80.7025 42.0381 80.1117 43.1041C79.6349 43.9708 78.8754 44.5038 78.0356 44.5038C76.8836 44.5038 76.2084 43.6025 76.2084 42.2721C76.2084 39.6461 78.4998 39.1694 80.673 39.1694V39.8368ZM83.6986 47.3465C83.5002 47.5285 83.2133 47.5415 82.9896 47.4202C81.9938 46.5708 81.8123 46.1765 81.268 45.3662C79.6223 47.0908 78.4534 47.6065 76.3224 47.6065C73.7947 47.6065 71.8325 46.0075 71.8325 42.8051C71.8325 40.3048 73.1491 38.6018 75.0311 37.7697C76.66 37.0331 78.9344 36.9031 80.673 36.6994V36.3007C80.673 35.5684 80.7278 34.7017 80.3059 34.069C79.943 33.5014 79.2425 33.2674 78.6222 33.2674C77.4786 33.2674 76.4616 33.8697 76.2127 35.1177C76.162 35.3951 75.9637 35.6681 75.6894 35.6811L72.782 35.3604C72.5372 35.3041 72.2629 35.1004 72.3347 34.7147C73.0014 31.092 76.1916 30 79.0441 30C80.5042 30 82.4115 30.3987 83.5635 31.534C85.0236 32.9337 84.8843 34.8014 84.8843 36.8337V41.6351C84.8843 43.0781 85.4667 43.7108 86.0152 44.4908C86.2051 44.7682 86.2473 45.1018 86.0026 45.3098C85.3907 45.8342 84.302 46.8092 83.7028 47.3552L83.6986 47.3465" fill="#1D1E25"/>
<path fill-rule="evenodd" clip-rule="evenodd" d="M41.3405 39.837C41.3405 41.0374 41.37 42.0384 40.7792 43.1044C40.3024 43.9711 39.547 44.5041 38.7031 44.5041C37.5511 44.5041 36.8801 43.6027 36.8801 42.2724C36.8801 39.6463 39.1715 39.1697 41.3405 39.1697V39.837ZM44.366 47.3468C44.1677 47.5288 43.8808 47.5418 43.6571 47.4204C42.6612 46.5711 42.484 46.1767 41.9354 45.3664C40.2897 47.0911 39.1251 47.6068 36.9899 47.6068C34.4664 47.6068 32.5 46.0077 32.5 42.8054C32.5 40.305 33.8208 38.602 35.6986 37.77C37.3274 37.0333 39.6019 36.9033 41.3405 36.6996V36.301C41.3405 35.5686 41.3953 34.702 40.9776 34.0693C40.6104 33.5016 39.9099 33.2676 39.2939 33.2676C38.1503 33.2676 37.1291 33.87 36.8801 35.118C36.8295 35.3953 36.6312 35.6683 36.3611 35.6813L33.4495 35.3606C33.2047 35.3043 32.9346 35.1006 33.0022 34.715C33.6731 31.0923 36.859 30.0002 39.7116 30.0002C41.1717 30.0002 43.079 30.3989 44.231 31.5343C45.6911 32.9339 45.5518 34.8016 45.5518 36.834V41.6354C45.5518 43.0784 46.1341 43.7111 46.6827 44.4911C46.8768 44.7684 46.919 45.1021 46.6743 45.3101C46.0624 45.8344 44.9737 46.8094 44.3745 47.3554L44.366 47.3467" fill="#1D1E25"/>
</g>
</g>
<defs>
<clipPath id="clip0_134_649">
<rect width="160" height="90" fill="white" transform="translate(0.5)"/>
</clipPath>
<clipPath id="clip1_134_649">
<rect width="96.9412" height="30" fill="white" transform="translate(32.5 30)"/>
</clipPath>
</defs>
</svg>
