<svg width="161" height="90" viewBox="0 0 161 90" fill="none" xmlns="http://www.w3.org/2000/svg">
<g clip-path="url(#clip0_134_693)">
<rect x="0.5" width="160" height="90" rx="16" fill="white"/>
<g clip-path="url(#clip1_134_693)">
<path d="M64.222 41.2118V42.6994H64.2679C64.8073 41.903 65.7029 40.9649 67.6881 40.9649C69.2324 40.9649 70.4172 41.745 70.9249 42.9232H70.9708C71.4045 42.3275 71.9016 41.8766 72.4587 41.5574C73.1181 41.1789 73.8515 40.9617 74.7753 40.9617C76.8662 40.9617 78.7174 42.3111 78.7174 45.7142V52.1684H75.5299V46.1651C75.5299 44.4405 74.9022 43.4433 73.5976 43.4433C72.6421 43.4433 71.9475 44.0423 71.683 44.7795C71.5913 45.0329 71.549 45.3785 71.549 45.6681V52.1717H68.3615V45.9216C68.3615 44.457 67.7586 43.44 66.4716 43.44C65.442 43.44 64.7968 44.197 64.5323 44.8453C64.4195 45.1218 64.3842 45.441 64.3842 45.7406V52.1684H61.1932V41.2118H64.222ZM95.1696 41.2118V43.2787H95.2578C95.8431 41.6989 97.2323 40.9649 98.4523 40.9649C98.7591 40.9649 98.9283 40.988 99.1751 41.0341V43.904C98.8825 43.8645 98.611 43.825 98.2302 43.825C96.848 43.825 95.8854 44.5754 95.6421 45.7504C95.5892 45.994 95.5716 46.2573 95.5716 46.5601V52.1717H92.2995V41.2118H95.1696ZM103.618 37.5815V41.0308H106.382V43.8218H103.618V47.9391C103.618 49.2721 103.981 49.9171 105.06 49.9171C105.568 49.9171 105.941 49.8579 106.266 49.7822L106.308 52.096C105.874 52.2474 104.951 52.4119 104.013 52.4119C102.909 52.4119 101.989 52.0532 101.428 51.497C100.787 50.8617 100.49 49.8217 100.49 48.3406V37.5815H103.618ZM58.9718 52.1684H55.7984V37.5815H58.9718V52.1684ZM50.5095 48.2551C50.5095 48.4558 50.4918 48.6665 50.4319 48.8475C50.1851 49.6078 49.3424 50.2496 48.2916 50.2496C47.4136 50.2496 46.7155 49.7855 46.7155 48.8014C46.7155 47.2973 48.4926 46.8793 50.513 46.8892V48.2551H50.5095ZM53.6793 45.6319C53.6793 43.147 52.544 40.9649 48.7042 40.9649C46.7331 40.9649 45.1676 41.4817 44.3143 41.9424L44.9384 43.9369C45.7176 43.4762 46.9623 43.0977 48.14 43.0977C50.0899 43.0944 50.4072 44.1278 50.4072 44.7894V44.9474C46.1584 44.9408 43.4751 46.3132 43.4751 49.1108C43.4751 50.819 44.8397 52.4185 47.2162 52.4185C48.6795 52.4185 49.8995 51.8754 50.6329 51.0033H50.7034C50.7034 51.0033 51.19 52.8957 53.8627 52.1717C53.7216 51.3818 53.6758 50.5425 53.6758 49.5321V45.6319H53.6793ZM27.5341 37.5815C27.862 39.1251 28.7929 43.6078 28.7929 43.6078C29.1843 45.4509 29.5439 47.3829 29.8154 48.91H29.8648C30.1293 47.2874 30.5453 45.7504 30.9896 43.8481L32.5587 37.5815H36.0318L37.4986 44.0094C37.8829 45.7965 38.1897 47.1755 38.433 48.8376H38.4788C38.7432 47.1591 39.0888 45.7241 39.4661 43.8876L40.8765 37.5815H44.2085L40.0796 52.1684C37.4492 52.7048 36.4408 51.7175 36.0811 50.1508C35.7215 48.5809 35.0163 45.5957 35.0163 45.5957C34.6531 43.96 34.371 42.808 34.1736 41.1295H34.1242C33.8421 42.7916 33.5459 43.9567 33.1087 45.5924L31.3775 52.1717C28.6907 52.6719 27.7598 51.9314 27.245 49.9204C26.8007 48.1991 24.0293 37.5848 24.0293 37.5848H27.5341V37.5815ZM87.0105 48.2551C87.0105 48.4558 86.9928 48.6665 86.9329 48.8475C86.6861 49.6078 85.8434 50.2496 84.7926 50.2496C83.9147 50.2496 83.2165 49.7855 83.2165 48.8014C83.2165 47.2973 84.9936 46.8793 87.014 46.8892V48.2551H87.0105ZM90.1803 45.6319C90.1803 43.147 89.045 40.9649 85.2052 40.9649C83.2341 40.9649 81.6686 41.4817 80.8153 41.9424L81.4394 43.9369C82.2187 43.4762 83.4633 43.0977 84.641 43.0977C86.5874 43.0944 86.9082 44.1278 86.9082 44.7894V44.9474C82.6629 44.9408 79.9797 46.3132 79.9797 49.1108C79.9797 50.819 81.3477 52.4185 83.7207 52.4185C85.1805 52.4185 86.404 51.8754 87.1339 51.0033H87.2079C87.2079 51.0033 87.6945 52.8957 90.3672 52.1717C90.2262 51.3818 90.1803 50.5425 90.1803 49.5321V45.6319Z" fill="#041E42"/>
<path d="M119.246 47.1445C119.559 47.6772 119.538 48.2718 119.204 48.5433L113.433 52.499C112.832 52.8393 111.932 52.4268 111.422 51.5642C110.909 50.6982 111 49.7324 111.601 49.3922L117.991 46.4847C118.392 46.3335 118.933 46.6118 119.246 47.1445ZM126.841 47.1445C127.157 46.6118 127.695 46.3369 128.096 46.4812L134.489 49.3887C135.09 49.729 135.178 50.6947 134.668 51.5608C134.155 52.4234 133.252 52.8324 132.654 52.4956L126.883 48.5399C126.553 48.2718 126.528 47.6738 126.841 47.1445ZM123.042 49.2891C123.671 49.2891 124.187 49.6053 124.258 50.0211L124.88 56.8878C124.88 57.5682 124.068 58.125 123.045 58.125C122.026 58.125 121.211 57.5682 121.211 56.8878L121.829 50.0211C121.899 49.6053 122.416 49.2891 123.042 49.2891ZM126.883 41.4601L132.654 37.501C133.252 37.1607 134.155 37.5697 134.668 38.4358C135.178 39.3018 135.09 40.2676 134.489 40.6078L128.096 43.5188C127.695 43.6631 127.154 43.3882 126.841 42.8555C126.528 42.3228 126.553 41.7282 126.883 41.4601ZM117.991 43.5188L111.601 40.6078C111.004 40.2676 110.913 39.3018 111.422 38.4358C111.932 37.5697 112.835 37.1607 113.433 37.501L119.204 41.4601C119.538 41.7248 119.559 42.3228 119.246 42.8555C118.933 43.3882 118.392 43.6631 117.991 43.5188ZM121.829 39.9789L121.211 33.1122C121.211 32.4318 122.022 31.875 123.045 31.875C124.068 31.875 124.88 32.4318 124.88 33.1122L124.258 39.9789C124.187 40.3913 123.671 40.7109 123.042 40.7109C122.416 40.7109 121.899 40.3913 121.829 39.9789ZM136.229 52.4715V52.2997H136.387C136.44 52.2997 136.475 52.3341 136.475 52.3856C136.475 52.4337 136.44 52.4715 136.387 52.4715H136.229ZM136.099 52.7843C136.099 52.8015 136.113 52.8186 136.134 52.8186H136.201C136.218 52.8186 136.236 52.8015 136.236 52.7843V52.5884H136.345L136.433 52.7946C136.44 52.8083 136.45 52.8186 136.464 52.8186H136.545C136.57 52.8186 136.587 52.7946 136.577 52.7705C136.545 52.7087 136.513 52.6434 136.482 52.5781C136.534 52.5609 136.615 52.5093 136.615 52.3856C136.615 52.255 136.506 52.1794 136.397 52.1794H136.134C136.116 52.1794 136.099 52.1966 136.099 52.2138V52.7843ZM135.814 52.499C135.814 52.2206 136.046 51.9938 136.331 51.9938C136.615 51.9938 136.847 52.2172 136.847 52.499C136.847 52.7774 136.619 53.0042 136.331 53.0042C136.042 53.0042 135.814 52.7774 135.814 52.499ZM135.691 52.499C135.691 52.8427 135.976 53.1245 136.331 53.1245C136.682 53.1245 136.97 52.8427 136.97 52.499C136.97 52.1553 136.682 51.8735 136.331 51.8735C135.976 51.8735 135.691 52.1553 135.691 52.499Z" fill="#FFC124"/>
</g>
</g>
<defs>
<clipPath id="clip0_134_693">
<rect width="160" height="90" fill="white" transform="translate(0.5)"/>
</clipPath>
<clipPath id="clip1_134_693">
<rect width="112.941" height="26.25" fill="white" transform="translate(24.0293 31.875)"/>
</clipPath>
</defs>
</svg>
