<svg width="18" height="19" viewBox="0 0 18 19" fill="none" xmlns="http://www.w3.org/2000/svg">
<path d="M3.66822 8.03027C2.86672 8.03027 2.21094 8.68605 2.21094 9.48756C2.21094 10.2891 2.86672 10.9448 3.66822 10.9448C4.46973 10.9448 5.12551 10.2891 5.12551 9.48756C5.12551 8.68605 4.46973 8.03027 3.66822 8.03027Z" fill="#7E8492"/>
<path d="M13.8689 8.03027C13.0674 8.03027 12.4116 8.68605 12.4116 9.48756C12.4116 10.2891 13.0674 10.9448 13.8689 10.9448C14.6704 10.9448 15.3262 10.2891 15.3262 9.48756C15.3262 8.68605 14.6704 8.03027 13.8689 8.03027Z" fill="#7E8492"/>
<path d="M8.76881 8.03027C7.9673 8.03027 7.31152 8.68605 7.31152 9.48756C7.31152 10.2891 7.9673 10.9448 8.76881 10.9448C9.57032 10.9448 10.2261 10.2891 10.2261 9.48756C10.2261 8.68605 9.57032 8.03027 8.76881 8.03027Z" fill="#7E8492"/>
</svg>
